<?xml version="1.0" standalone="no"?><!DOCTYPE svg PUBLIC "-//W3C//DTD SVG 1.1//EN" "http://www.w3.org/Graphics/SVG/1.1/DTD/svg11.dtd"><svg t="1597403007128" class="icon" viewBox="0 0 1024 1024" version="1.1" xmlns="http://www.w3.org/2000/svg" p-id="4993" xmlns:xlink="http://www.w3.org/1999/xlink" width="250" height="250"><defs><style type="text/css"></style></defs><path d="M283.7 786.4h255.5c12.4 0 22.4-10 22.4-22.4V552.6c0-12.4-10-22.4-22.4-22.4H283.7c-12.4 0-22.4 10-22.4 22.4V764c0 12.4 10 22.4 22.4 22.4zM306.1 575h210.7v166.5H306.1V575z" p-id="4994"></path><path d="M839.3 185.1c-23.2 0-44.3 8-61.5 21-104.8-67.9-223.6-53.8-256.2-48v-72c0-12.4-10-22.4-22.4-22.4H323.7c-12.4 0-22.4 10-22.4 22.4v177.3c0 12.4 10 22.4 22.4 22.4h21.5v70H170.4c-49.5 0-89.7 40.2-89.7 89.7V871c0 49.5 40.2 89.7 89.7 89.7h482c49.5 0 89.7-40.2 89.7-89.7V445.5c0-49.5-40.2-89.7-89.7-89.7H477.7v-70h21.5c12.4 0 22.4-10 22.4-22.4v-59.9c0.5-0.1 1 0.1 1.4 0 1.3-0.3 122.5-26.3 225.6 37.1-7.4 14.2-12 30.1-12 47.2 0 56.6 46 102.6 102.6 102.6s102.6-46.1 102.6-102.6-45.9-102.7-102.5-102.7z m-493.2-76.5h130.7V241H346.1V108.6z m351.2 336.9V871c0 24.7-20.1 44.9-44.8 44.9h-482c-24.7 0-44.9-20.1-44.9-44.9V445.5c0-24.7 20.1-44.9 44.9-44.9h482c24.6 0.1 44.8 20.2 44.8 44.9z m-264.4-89.7H390v-70h42.9v70z m406.4-10.3c-31.9 0-57.8-25.9-57.8-57.8s25.9-57.8 57.8-57.8 57.8 25.9 57.8 57.8-25.9 57.8-57.8 57.8z" p-id="4995"></path></svg>